<svg width="79" height="78" viewBox="0 0 79 78" fill="none" xmlns="http://www.w3.org/2000/svg">
<rect x="0.75" width="78" height="78" rx="39" fill="#FFE0B2"/>
<rect x="16" y="15" width="46" height="48" rx="23" fill="#FFE0B2"/>
<path d="M49.1666 20.667H30.8333C25.7707 20.667 21.6666 24.771 21.6666 29.8337V48.167C21.6666 53.2296 25.7707 57.3337 30.8333 57.3337H49.1666C54.2292 57.3337 58.3333 53.2296 58.3333 48.167V29.8337C58.3333 24.771 54.2292 20.667 49.1666 20.667Z" stroke="#212121" stroke-width="2" stroke-linecap="round" stroke-linejoin="round"/>
<path d="M47.3333 37.8446C47.5596 39.3704 47.299 40.9286 46.5885 42.2978C45.8781 43.6669 44.7541 44.7772 43.3763 45.4706C41.9985 46.1641 40.4371 46.4055 38.9143 46.1605C37.3914 45.9154 35.9846 45.1964 34.8939 44.1057C33.8032 43.015 33.0842 41.6082 32.8391 40.0853C32.5941 38.5624 32.8354 37.001 33.5289 35.6233C34.2224 34.2455 35.3327 33.1214 36.7018 32.411C38.0709 31.7006 39.6292 31.44 41.155 31.6662C42.7114 31.897 44.1522 32.6223 45.2648 33.7348C46.3773 34.8474 47.1025 36.2882 47.3333 37.8446Z" stroke="#212121" stroke-width="2" stroke-linecap="round" stroke-linejoin="round"/>
<path d="M50.0834 28.917H50.1017" stroke="#212121" stroke-width="2" stroke-linecap="round" stroke-linejoin="round"/>
</svg>
